:SAMPLES-PER-SECOND 30
:FULLY-SPECIFIED
:DEGREES
590
root  -4.54637 40.8793 0.0598877 -172.925 -89.0159 172.895
RightUpLeg  7.65291 -2.20906 -0.986284
RightLeg  -3.8187 -21.6759 2.1401
RightFoot  -2.18237 -0.29187 3.53085
RightToes  -3.13006e-008 1.75238e-005 3.56266e-009
Spine  -4.46446 -1.20459 -0.303217
Spine1  4.86958 -0.959795 -1.08561
HEad  -3.97319 -3.76663 0.0523241
LeftShoulder1  0.0547874 2.90896 -0.918834
LeftArm  -51.2875 3.16182 2.13576
LeftForeArm  51.354 1.75519 6.48068
LeftHand  -0.0667933 -1.33738 1.30724
RightShoulder  0.100496 -2.3922 0.695187
RightArm  -43.426 -7.90606 -1.43242
RightForeArm  19.4473 3.90258 -0.424079
RightHand  -0.2358 3.32516 -3.38147
LeftUpLeg  7.52187 1.78386 3.0839
LeftLeg  -4.31816 12.9456 -1.10174
LeftFoot  -1.69401 0.352792 -4.06009
LeftToes  4.76866e-008 1.46233e-008 1.30548e-009
591
root  -4.56053 40.8713 0.107684 -166.396 -89.289 166.129
RightUpLeg  7.90839 -2.40218 -1.15874
RightLeg  -3.68276 -21.7516 2.15917
RightFoot  -2.28848 -0.297221 3.58404
RightToes  -3.13006e-008 1.75238e-005 3.56266e-009
Spine  -4.22694 -1.13756 -0.763393
Spine1  5.15296 -0.963769 -0.602027
HEad  -4.51884 -3.71222 -0.13911
LeftShoulder1  0.0517497 2.94778 -0.979605
LeftArm  -51.3316 3.27474 2.67695
LeftForeArm  50.9488 3.60124 6.95835
LeftHand  -0.0844175 -0.297526 1.75216
RightShoulder  0.101701 -2.36559 0.546358
RightArm  -42.5203 -9.07789 -1.61991
RightForeArm  18.6604 4.52392 0.14454
RightHand  -0.225094 2.67804 -3.44931
LeftUpLeg  7.70718 1.78901 2.99944
LeftLeg  -4.19327 12.6339 -1.07604
LeftFoot  -1.80684 0.345543 -4.01299
LeftToes  4.76866e-008 1.46233e-008 1.30548e-009
592
root  -4.57444 40.8749 0.162764 -135.459 -89.6081 134.906
RightUpLeg  8.19903 -2.68428 -1.4253
RightLeg  -3.49676 -21.8196 2.18257
RightFoot  -2.30525 -0.309005 3.70831
RightToes  -3.13006e-008 1.75238e-005 3.56266e-009
Spine  -3.93817 -1.23619 -0.876695
Spine1  5.27352 -1.01704 -0.754933
HEad  -4.37847 -3.4992 0.178522
LeftShoulder1  0.0547723 2.8953 -0.607612
LeftArm  -51.2339 3.43992 2.87017
LeftForeArm  52.8605 4.08589 7.32768
LeftHand  -0.0554275 -0.0935699 1.20165
RightShoulder  0.130637 -2.08883 0.92425
RightArm  -42.1059 -9.6353 -1.86005
RightForeArm  17.9047 4.5539 0.358511
RightHand  -0.243494 2.80703 -3.6673
LeftUpLeg  7.99407 1.74929 2.85037
LeftLeg  -4.22387 12.2877 -1.07801
LeftFoot  -1.74041 0.327619 -3.77704
LeftToes  4.76866e-008 1.46233e-008 1.30548e-009
593
root  -4.57737 40.899 0.205909 -74.2437 -89.7717 73.5267
RightUpLeg  8.47296 -2.68958 -1.4249
RightLeg  -3.66745 -22.1797 2.22729
RightFoot  -1.94468 -0.325652 3.79837
RightToes  -3.13006e-008 1.75238e-005 3.56266e-009
Spine  -3.6988 -1.37122 -1.22664
Spine1  5.17663 -1.2296 -0.33404
HEad  -4.03453 -3.36734 -0.12163
LeftShoulder1  0.0429595 3.02189 -0.534399
LeftArm  -50.5746 3.6528 2.73044
LeftForeArm  55.3755 3.98044 7.15084
LeftHand  -0.081523 -0.844375 1.59521
RightShoulder  0.155676 -1.78847 0.719029
RightArm  -42.2987 -9.63175 -1.41181
RightForeArm  18.4838 4.14873 0.0883763
RightHand  -0.223995 2.73413 -3.41582
LeftUpLeg  8.20204 1.8122 2.88785
LeftLeg  -4.44519 11.901 -1.14502
LeftFoot  -1.41309 0.317428 -3.55719
LeftToes  4.76866e-008 1.46233e-008 1.30548e-009
594
root  -4.58853 40.9403 0.253125 -24.6718 -89.4507 24.1223
RightUpLeg  8.43519 -2.73583 -1.5321
RightLeg  -3.9293 -22.5088 2.36014
RightFoot  -1.43857 -0.35754 4.01007
RightToes  -3.13006e-008 1.75238e-005 3.56266e-009
Spine  -3.85002 -1.3064 -1.23084
Spine1  4.82669 -1.13644 -0.407094
HEad  -2.94683 -3.50573 -0.125824
LeftShoulder1  0.0642411 2.78188 -0.498094
LeftArm  -51.1464 2.77965 2.28757
LeftForeArm  58.3345 3.76752 7.82675
LeftHand  -0.140055 -2.56328 2.26357
RightShoulder  0.136186 -2.03493 0.948729
RightArm  -42.1553 -9.46375 -1.17499
RightForeArm  18.4154 3.94353 0.191408
RightHand  -0.1951 2.57143 -3.05124
LeftUpLeg  8.28721 1.80649 2.87246
LeftLeg  -5.14386 11.5591 -1.37485
LeftFoot  -0.790516 0.328246 -3.50309
LeftToes  4.76866e-008 1.46233e-008 1.30548e-009
595
root  -4.58935 40.983 0.308903 -10.8873 -88.9252 10.5983
RightUpLeg  8.35326 -2.7047 -1.54491
RightLeg  -4.3019 -23.0867 2.53344
RightFoot  -0.907178 -0.399726 4.30708
RightToes  -3.13006e-008 1.75238e-005 3.56266e-009
Spine  -4.02951 -1.45115 -1.00392
Spine1  4.40355 -1.22994 -0.725059
HEad  -1.46135 -3.32632 -0.197682
LeftShoulder1  0.0650909 2.79139 -0.76908
LeftArm  -51.0358 2.19263 1.95365
LeftForeArm  58.8793 3.77228 7.69938
LeftHand  -0.151182 -2.09468 2.53377
RightShoulder  0.131518 -2.11354 1.16781
RightArm  -41.9959 -9.10291 -0.839292
RightForeArm  17.6722 3.80157 0.387994
RightHand  -0.170005 2.20854 -2.78642
LeftUpLeg  8.0257 1.70222 2.82535
LeftLeg  -5.40117 11.2277 -1.3735
LeftFoot  -0.324439 0.34164 -3.52303
LeftToes  4.76866e-008 1.46233e-008 1.30548e-009
596
root  -4.54215 41.0125 0.353108 -6.58405 -88.2644 6.56499
RightUpLeg  8.02709 -2.70659 -1.57565
RightLeg  -4.29334 -23.7223 2.58411
RightFoot  -0.561927 -0.42893 4.50298
RightToes  -3.13006e-008 1.75238e-005 3.56266e-009
Spine  -4.06101 -1.63033 -1.01863
Spine1  3.95066 -1.37815 -0.870006
HEad  -0.145762 -4.3012 -0.339116
LeftShoulder1  0.0731511 2.702 -0.763893
LeftArm  -50.8089 1.56808 1.47688
LeftForeArm  59.0965 3.81542 7.41708
LeftHand  -0.200809 -2.21513 3.24838
RightShoulder  0.151141 -1.9742 1.64515
RightArm  -42.2816 -8.75589 -0.758072
RightForeArm  17.6674 3.48375 0.181512
RightHand  -0.148328 2.60334 -2.36568
LeftUpLeg  7.45064 1.58991 2.75784
LeftLeg  -5.23218 10.7672 -1.29809
LeftFoot  -0.0624228 0.342149 -3.46176
LeftToes  4.76866e-008 1.46233e-008 1.30548e-009
597
root  -4.48209 41.0096 0.393823 -6.99254 -87.7747 7.09891
RightUpLeg  7.75713 -2.7829 -1.693
RightLeg  -4.08034 -24.0866 2.54315
RightFoot  -0.661883 -0.434794 4.6007
RightToes  -3.13006e-008 1.75238e-005 3.56266e-009
Spine  -4.00117 -1.70905 -1.00103
Spine1  3.68665 -1.3977 -1.14658
HEad  0.706885 -4.48562 -0.183454
LeftShoulder1  0.0929611 2.47955 -0.702787
LeftArm  -50.8388 0.923791 1.12701
LeftForeArm  59.893 3.79446 7.38685
LeftHand  -0.272808 -3.14452 3.95408
RightShoulder  0.176128 -1.78418 2.07722
RightArm  -42.6921 -8.45282 -0.652467
RightForeArm  18.3041 3.12624 -0.157187
RightHand  -0.14337 2.96578 -2.21985
LeftUpLeg  7.13078 1.53409 2.6587
LeftLeg  -5.17236 10.3938 -1.32867
LeftFoot  -0.102408 0.331454 -3.36223
LeftToes  4.76866e-008 1.46233e-008 1.30548e-009
598
root  -4.40721 40.9653 0.43224 -5.86987 -87.4153 5.87874
RightUpLeg  7.7556 -2.76659 -1.67244
RightLeg  -3.96813 -24.4999 2.49898
RightFoot  -1.11704 -0.412326 4.51847
RightToes  -3.13006e-008 1.75238e-005 3.56266e-009
Spine  -3.61078 -1.77633 -0.981384
Spine1  3.488 -1.47771 -1.15669
HEad  0.420175 -4.734 -0.799271
LeftShoulder1  0.10867 2.34309 -1.0184
LeftArm  -50.9431 0.213617 1.105
LeftForeArm  60.4153 3.77666 7.38872
LeftHand  -0.286323 -2.96862 4.22924
RightShoulder  0.170057 -1.79162 1.71278
RightArm  -42.43 -8.42067 -0.164961
RightForeArm  17.4485 3.44428 0.138781
RightHand  -0.147331 2.6594 -2.34508
LeftUpLeg  6.9194 1.48722 2.58396
LeftLeg  -4.78844 10.0621 -1.20188
LeftFoot  -0.62711 0.29948 -3.15299
LeftToes  4.76866e-008 1.46233e-008 1.30548e-009
599
root  -4.31158 40.9148 0.468848 -7.57626 -87.1495 7.34615
RightUpLeg  7.99171 -2.78488 -1.73595
RightLeg  -4.12946 -24.849 2.52681
RightFoot  -1.61799 -0.360317 4.10326
RightToes  -3.13006e-008 1.75238e-005 3.56266e-009
Spine  -3.02934 -1.77386 -1.31785
Spine1  3.45964 -1.54244 -0.855188
HEad  -0.226066 -4.80345 -1.22327
LeftShoulder1  0.153854 1.92532 -1.4562
LeftArm  -50.5978 -0.152865 1.64195
LeftForeArm  60.1424 3.86208 6.95868
LeftHand  -0.322988 -2.66162 4.81246
RightShoulder  0.157057 -1.85627 1.24735
RightArm  -42.6149 -8.27486 0.205662
RightForeArm  18.3262 3.56258 0.015001
RightHand  -0.0936412 3.11423 -1.51023
LeftUpLeg  6.6217 1.4506 2.39623
LeftLeg  -3.962 9.87444 -1.04479
LeftFoot  -1.14889 0.269812 -2.94915
LeftToes  4.76866e-008 1.46233e-008 1.30548e-009
600
root  -4.23444 40.8928 0.497294 -11.1742 -86.9496 10.7746
RightUpLeg  8.14031 -2.89515 -1.9387
RightLeg  -4.23372 -24.9875 2.51774
RightFoot  -1.90587 -0.32645 3.79702
RightToes  -3.13006e-008 1.75238e-005 3.56266e-009
Spine  -3.18147 -1.75274 -1.80445
Spine1  4.34755 -1.55079 -0.549331
HEad  -0.984614 -5.1088 -1.21011
LeftShoulder1  0.179691 1.70979 -1.76807
LeftArm  -51.2953 -1.05193 2.03482
LeftForeArm  61.8971 3.71072 7.47648
LeftHand  -0.519234 -4.69634 6.31963
RightShoulder  0.14836 -1.93404 1.14366
RightArm  -42.5976 -8.00114 0.272937
RightForeArm  18.1119 3.60039 0.101762
RightHand  -0.127063 2.81634 -2.01354
LeftUpLeg  6.57422 1.43601 2.19393
LeftLeg  -3.73499 9.6991 -1.11661
LeftFoot  -1.28299 0.261358 -2.88313
LeftToes  4.76866e-008 1.46233e-008 1.30548e-009
